# AST/ASF file generated using VICON BodyLanguage
# -----------------------------------------------
:version 1.10
:name VICON
:units
  mass 1.0
  length 0.45
  angle deg
:documentation
   .ast/.asf automatically generated from VICON data using
   VICON BodyBuilder and BodyLanguage model FoxedUp or BRILLIANT.MOD
:root
   order TX TY TZ RX RY RZ
   axis XYZ
   position 0 0 0  
   orientation 0 0 0 
:bonedata
  begin
     id 1 
     name lhipjoint
     direction 0.710087 -0.641647 0.289942 
     length 2.79038 
     axis 0 0 0  XYZ
  end
  begin
     id 2 
     name lfemur
     direction 0.34202 -0.939693 0  
     length 7.2706  
     axis 0 0 20  XYZ
    dof rx ry rz
    limits (-160.0 20.0)
           (-70.0 70.0)
           (-60.0 70.0)
  end
  begin
     id 3 
     name ltibia
     direction 0.34202 -0.939693 0   
     length 7.86328   
     axis 0 0 20   XYZ
    dof rx
    limits (-10.0 170.0)
  end
  begin
     id 4 
     name lfoot
     direction 0.0541246 -0.148706 0.987399   
     length 2.37542   
     axis -90 7.62852e-016 20   XYZ
    dof rx rz
    limits (-45.0 90.0)
           (-70.0 20.0)
  end
  begin
     id 5 
     name ltoes
     direction 1.53554e-011 -4.21866e-011 1   
     length 1.19593   
     axis -90 7.62852e-016 20   XYZ
    dof rx
    limits (-90.0 20.0)
  end
  begin
     id 6 
     name rhipjoint
     direction -0.675762 -0.671724 0.303533   
     length 2.66544  
     axis 0 0 0  XYZ 
  end
  begin
     id 7 
     name rfemur
     direction -0.34202 -0.939693 0   
     length 8.11844   
     axis 0 0 -20   XYZ
    dof rx ry rz
    limits (-160.0 20.0)
           (-70.0 70.0)
           (-70.0 60.0)
  end
  begin
     id 8 
     name rtibia
     direction -0.34202 -0.939693 0   
     length 7.97082   
     axis 0 0 -20   XYZ
    dof rx
    limits (-10.0 170.0)
 end
 begin
     id 9 
     name rfoot
     direction -0.0726228 -0.199474 0.977208   
     length 2.19677  
     axis -90 -7.62852e-016 -20   XYZ
    dof rx rz
    limits (-45.0 90.0)
           (-20.0 70.0)
  end
  begin
     id 10 
     name rtoes
     direction -1.53508e-011 -4.21913e-011 1   
     length 1.10438   
     axis -90 -7.62852e-016 -20   XYZ
    dof rx
    limits (-90.0 20.0)
  end
  begin
     id 11 
     name lowerback
     direction -0.00404436 0.999673 -0.0252643   
     length 2.03972   
     axis 0 0 0   XYZ
    dof rx ry rz
    limits (-20.0 45.0)
           (-30.0 30.0)
           (-30.0 30.0)
  end
  begin
     id 12 
     name upperback
     direction 0.00744643 0.999969 0.00242763   
     length 2.04273   
     axis 0 0 0   XYZ
    dof rx ry rz
    limits (-20.0 45.0)
           (-30.0 30.0)
           (-30.0 30.0)
  end
  begin
     id 13 
     name thorax
     direction 0.00846113 0.999862 0.0143204   
     length 2.03752   
     axis 0 0 0   XYZ
    dof rx ry rz
    limits (-20.0 45.0)
           (-30.0 30.0)
           (-30.0 30.0)
  end
  begin
     id 14 
     name lowerneck
     direction 0.0328213 0.990857 0.130862   
     length 1.37497   
     axis 0 0 0   XYZ
    dof rx ry rz
    limits (-20.0 45.0)
           (-30.0 30.0)
           (-30.0 30.0)
  end
  begin
     id 15 
     name upperneck
     direction -0.0302832 0.999496 0.00956452   
     length 1.35926   
     axis 0 0 0   XYZ
    dof rx ry rz
    limits (-20.0 45.0)
           (-30.0 30.0)
           (-30.0 30.0)
  end
  begin
     id 16
     name head
     direction -0.0130455 0.999856 -0.0108809  
     length 1.44454  
     axis 0 0 0   XYZ
    dof rx ry rz
    limits (-20.0 45.0)
           (-30.0 30.0)
           (-30.0 30.0)
  end
  begin
     id 17 
     name lclavicle
     direction 0.952957 0.278766 0.119006  
     length 3.10112  
     axis 0 0 0   XYZ
    dof ry rz
    limits (-20.0 10.0)
           (0.0 20.0)
  end
  begin
     id 18 
     name lhumerus
     direction 1 -4.48972e-011 -1.63238e-028   
     length 5.82845   
     axis -180 -30 -90   XYZ
    dof rx ry rz
    limits (-60.0 90.0)
           (-90.0 90.0)
           (-90.0 90.0)
  end
  begin
     id 19
     name lradius
     direction 1 -4.48959e-011 1.45401e-026   
     length 3.49691   
     axis -180 -30 -90   XYZ
    dof rx
    limits (-10.0 170.0)
  end
  begin
     id 20
     name lwrist
     direction 1 -4.48945e-011 2.98015e-026   
     length 1.74845   
     axis -1.7599e-014 90 90   XYZ
    dof ry
    limits (-180.0 0.0)
 end
  begin
     id 21 
     name lhand
     direction 1 -4.4902e-011 5.9603e-026   
     length 0.674998   
     axis -3.80318e-014 90 90   XYZ
    dof rx rz
    limits (-90.0 90.0)
           (-45.0 45.0)
  end
  begin
     id 22 
     name lfingers
     direction 1 -4.48979e-011 1.19206e-025   
     length 0.544201   
     axis -7.60636e-014 90 90   XYZ
    dof rx
    limits (0.0 90.0)
  end
  begin
     id 23
     name lthumb
     direction 0.707107 -6.34941e-011 0.707107   
     length 0.781367   
     axis -90 45 2.85299e-015   XYZ
    dof rx rz
    limits (-45.0 45.0)
           (-45.0 45.0)
  end
  begin
     id 24 
     name rclavicle
     direction -0.967632 0.241887 0.0719654   
     length 3.53012  
     axis 0 0 0   XYZ 
    dof ry rz
    limits (-10.0 20.0)
           (-20.0 0.0)
  end
  begin
     id 25 
     name rhumerus
     direction -1 -4.4897e-011 6.87619e-028  
     length 5.45859   
     axis -180 30 90   XYZ
    dof rx ry rz
    limits (-90.0 60.0)
           (-90.0 90.0)
           (-90.0 90.0)
  end
  begin
     id 26 
     name rradius
     direction -1 -4.48967e-011 1.68055e-026   
     length 3.58491   
     axis -180 30 90   XYZ
    dof rx
    limits (-10.0 170.0)
  end
  begin
     id 27 
     name rwrist
     direction -1 -4.48976e-011 2.98015e-026   
     length 1.79245   
     axis -1.7599e-014 -90 -90   XYZ
    dof ry
    limits (-180.0 0.0)
  end
  begin
     id 28
     name rhand
     direction -1 -4.48996e-011 5.9603e-026   
     length 0.683735   
     axis -3.80318e-014 -90 -90   XYZ
    dof rx rz
    limits (-90.0 90.0)
           (-45.0 45.0)
  end
  begin
     id 29
     name rfingers
     direction -1 -4.48924e-011 1.19206e-025   
     length 0.551245   
     axis -7.60636e-014 -90 -90   XYZ
    dof rx
    limits (0.0 90.0)
  end
  begin
     id 30
     name rthumb
     direction -0.707107 -6.3492e-011 0.707107   
     length 0.791481   
     axis -90 -45 -2.85299e-015   XYZ
    dof rx rz
    limits (-45.0 45.0)
           (-45.0 45.0)
  end
:hierarchy
  begin
    root lhipjoint rhipjoint lowerback
    lhipjoint lfemur
    lfemur ltibia
    ltibia lfoot
    lfoot ltoes
    rhipjoint rfemur
    rfemur rtibia
    rtibia rfoot
    rfoot rtoes
    lowerback upperback
    upperback thorax
    thorax lowerneck lclavicle rclavicle
    lowerneck upperneck
    upperneck head
    lclavicle lhumerus
    lhumerus lradius
    lradius lwrist
    lwrist lhand lthumb
    lhand lfingers
    rclavicle rhumerus
    rhumerus rradius
    rradius rwrist
    rwrist rhand rthumb
    rhand rfingers
  end

#!OML:ASF F:\VICON\USERDATA\INSTALL\rory3\rory3.ASF
:FULLY-SPECIFIED
:DEGREES
170
root -0.126913 18.261 -31.3965 9.62822 2.20024 -2.63711
lowerback -0.181813 4.64211 5.60286
upperback -3.24807 6.29082 -0.115686
thorax -2.6432 3.00378 -3.3358
lowerneck -7.93098 -1.46506 3.47558
upperneck 2.88656 -2.05992 -4.96714
head 2.22143 -1.13481 -2.30792
rclavicle 2.8302e-014 -1.07344e-014
rhumerus 34.9912 -18.5342 -81.0308
rradius 66.9327
rwrist -94.5456
rhand -21.377 59.3676
rfingers 7.12502
rthumb 5.0103 29.4468
lclavicle 2.8302e-014 -1.07344e-014
lhumerus -25.191 -20.5392 79.0803
lradius 83.1249
lwrist 75.8512
lhand -25.4161 65.9646
lfingers 7.12502
lthumb -178.89 444.059
rfemur -23.7313 11.759 19.7129
rtibia 40.0374
rfoot -38.2613 -10.2195
rtoes 20.2216
lfemur -16.6503 -8.32723 -16.7601
ltibia 21.8734
lfoot -10.541 7.45306
ltoes -11.4633
171
root -0.140108 18.2621 -31.3722 9.42251 3.2734 -2.76754
lowerback 0.00125143 4.72447 5.95616
upperback -3.45068 6.41982 -0.429952
thorax -2.87326 3.04389 -3.87922
lowerneck -8.09153 -1.85771 3.85926
upperneck 3.60524 -2.61065 -4.91773
head 2.46208 -1.40521 -2.40252
rclavicle -3.99309e-014 6.36111e-015
rhumerus 37.4994 -20.1089 -80.4361
rradius 68.3841
rwrist -93.246
rhand -21.9293 60.7102
rfingers 7.12502
rthumb 4.47701 30.7775
lclavicle -3.99309e-014 6.36111e-015
lhumerus -25.324 -20.3508 78.862
lradius 82.8632
lwrist 75.8623
lhand -25.1525 65.7145
lfingers 7.12502
lthumb -178.636 444.31
rfemur -23.2194 11.308 20.1015
rtibia 39.9589
rfoot -38.7888 -10.3727
rtoes 20.096
lfemur -16.6524 -8.65427 -16.5212
ltibia 22.0718
lfoot -10.4509 6.83014
ltoes -12.3413
172
root -0.150793 18.2566 -31.3494 9.14083 4.31546 -2.84785
lowerback 0.0111007 4.62928 6.10651
upperback -2.76156 6.26816 -0.487965
thorax -2.15649 3.00301 -3.98265
lowerneck -11.334 -1.97226 3.52897
upperneck 4.88441 -2.78717 -4.71652
head 3.51575 -1.5227 -2.39775
rclavicle 3.52719e-014 1.58034e-014
rhumerus 41.6221 -20.9671 -79.9591
rradius 69.4195
rwrist -91.4242
rhand -21.924 60.9259
rfingers 7.12502
rthumb 4.48219 30.9933
lclavicle 3.52719e-014 1.58034e-014
lhumerus -23.9015 -19.2793 78.4265
lradius 82.3855
lwrist 75.7172
lhand -24.2964 65.3806
lfingers 7.12502
lthumb -177.809 444.651
rfemur -22.6491 10.9639 20.4222
rtibia 39.8908
rfoot -39.5107 -10.3224
rtoes 20.3156
lfemur -16.5717 -9.01447 -16.3409
ltibia 22.2331
lfoot -10.4089 6.30359
ltoes -12.7347
173
root -0.16087 18.2505 -31.3243 8.96774 5.33072 -2.89226
lowerback -0.00148107 4.52419 6.11698
upperback -2.93309 6.13387 -0.495087
thorax -2.34089 2.92566 -4.00522
lowerneck -10.7615 -2.22785 3.30796
upperneck 5.09995 -3.08701 -4.59655
head 3.46746 -1.66555 -2.32333
rclavicle 1.06368e-013 -1.2424e-014
rhumerus 43.4024 -21.3515 -78.3504
rradius 70.4327
rwrist -89.8931
rhand -22.0753 59.4969
rfingers 7.12502
rthumb 4.33606 29.5613
lclavicle 1.06368e-013 -1.2424e-014
lhumerus -24.5222 -18.6339 78.6172
lradius 82.0752
lwrist 75.5508
lhand -23.0903 64.9436
lfingers 7.12502
lthumb -176.644 445.103
rfemur -22.2053 10.5502 20.6871
rtibia 39.8268
rfoot -40.1119 -10.3358
rtoes 20.2123
lfemur -16.601 -9.66578 -16.1668
ltibia 22.3933
lfoot -10.3552 6.08145
ltoes -13.3916
174
root -0.166835 18.2522 -31.2945 8.88825 6.26054 -2.94864
lowerback 0.133715 4.4726 6.21462
upperback -3.31865 6.08722 -0.681173
thorax -2.79432 2.87371 -4.28423
lowerneck -9.91738 -2.44329 3.44359
upperneck 5.2408 -3.38354 -4.42475
head 3.33802 -1.79489 -2.28561
rclavicle 1.5631e-014 -1.06847e-015
rhumerus 44.134 -21.763 -76.384
rradius 71.5011
rwrist -88.6721
rhand -22.3642 57.1235
rfingers 7.12502
rthumb 4.05712 27.1824
lclavicle 1.5631e-014 -1.06847e-015
lhumerus -25.4669 -18.6279 78.6623
lradius 81.7809
lwrist 75.3025
lhand -21.969 64.311
lfingers 7.12502
lthumb -175.561 445.756
rfemur -21.8596 10.0415 20.9257
rtibia 39.7616
rfoot -40.4799 -10.3839
rtoes 20.7327
lfemur -16.6686 -9.98271 -16.0152
ltibia 22.5166
lfoot -10.387 5.35221
ltoes -13.0882
175
root -0.174693 18.2494 -31.2682 8.86206 6.97601 -3.01512
lowerback -0.502247 4.46042 5.97261
upperback -3.16422 6.0204 -0.539211
thorax -2.32182 2.86835 -3.93997
lowerneck -9.33392 -2.61331 3.17717
upperneck 4.96116 -3.57711 -4.31416
head 3.12409 -1.88737 -2.18537
rclavicle -1.71157e-014 -5.66536e-015
rhumerus 44.9895 -21.945 -73.8858
rradius 72.5418
rwrist -87.6346
rhand -21.5543 58.8997
rfingers 7.12502
rthumb 4.83916 28.9749
lclavicle -1.71157e-014 -5.66536e-015
lhumerus -25.6439 -18.1847 79.0183
lradius 81.3483
lwrist 75.0519
lhand -22.189 64.3041
lfingers 7.12502
lthumb -175.774 445.758
rfemur -21.6237 9.60066 21.1455
rtibia 39.7111
rfoot -40.7451 -10.1771
rtoes 21.8419
lfemur -16.7448 -10.2207 -15.8528
ltibia 22.5784
lfoot -10.4376 4.79852
ltoes -11.9588
176
root -0.180467 18.2462 -31.2358 8.84572 7.49743 -2.97815
lowerback -0.9248 4.38211 5.72815
upperback -3.2938 5.891 -0.493876
thorax -2.26097 2.80966 -3.73061
lowerneck -8.39626 -2.67529 2.9616
upperneck 4.97969 -3.61879 -4.24161
head 2.95266 -1.90193 -2.09736
rclavicle 2.41741e-014 9.44227e-015
rhumerus 45.0214 -21.7895 -71.4656
rradius 73.5024
rwrist -86.3213
rhand -20.5548 58.574
rfingers 7.12502
rthumb 5.80422 28.6735
lclavicle 2.41741e-014 9.44227e-015
lhumerus -26.4227 -17.7135 79.3087
lradius 80.8901
lwrist 74.7814
lhand -23.3202 65.1275
lfingers 7.12502
lthumb -176.866 444.916
rfemur -21.3983 9.37595 21.2215
rtibia 39.6646
rfoot -41.0557 -10.0685
rtoes 22.284
lfemur -16.7362 -10.5484 -15.8382
ltibia 22.6131
lfoot -10.5853 4.75481
ltoes -12.6025
177
root -0.186785 18.2466 -31.2064 8.81284 7.90264 -2.8468
lowerback -1.20542 4.32861 5.46183
upperback -2.89143 5.78423 -0.634203
thorax -1.70734 2.7859 -3.68437
lowerneck -10.0056 -2.64798 3.064
upperneck 5.59777 -3.61872 -4.18837
head 3.47644 -1.90993 -2.16123
rclavicle -4.95486e-014 1.21569e-014
rhumerus 45.8519 -22.0268 -69.8988
rradius 74.511
rwrist -84.5433
rhand -20.1694 57.8545
rfingers 7.12502
rthumb 6.17632 27.9646
lclavicle -4.95486e-014 1.21569e-014
lhumerus -25.9204 -17.4761 78.9262
lradius 80.3485
lwrist 74.5985
lhand -24.254 65.6117
lfingers 7.12502
lthumb -177.768 444.42
rfemur -21.1709 9.21784 21.1879
rtibia 39.632
rfoot -41.4302 -9.97413
rtoes 22.5523
lfemur -16.6648 -10.948 -15.8969
ltibia 22.6327
lfoot -10.7913 4.67585
ltoes -11.6463
178
root -0.184518 18.248 -31.1849 8.82161 8.17968 -2.72244
lowerback -1.38138 4.3005 5.26848
upperback -2.82584 5.73197 -0.784239
thorax -1.54879 2.76831 -3.71456
lowerneck -10.1952 -2.62707 3.21627
upperneck 5.74375 -3.61841 -4.11793
head 3.56351 -1.90421 -2.1746
rclavicle -5.07988e-014 -3.32964e-015
rhumerus 45.4827 -21.9863 -68.0041
rradius 75.6415
rwrist -82.9634
rhand -19.4123 58.0597
rfingers 7.12502
rthumb 6.90716 28.1924
lclavicle -5.07988e-014 -3.32964e-015
lhumerus -26.2732 -17.3842 78.7361
lradius 79.8812
lwrist 74.0536
lhand -24.1955 65.467
lfingers 7.12502
lthumb -177.711 444.566
rfemur -21.0478 9.01213 21.0981
rtibia 39.6112
rfoot -41.6124 -9.81997
rtoes 22.7242
lfemur -16.6077 -11.1459 -16.012
ltibia 22.6266
lfoot -10.8234 4.61363
ltoes -11.0802
179
root -0.181538 18.2476 -31.1725 8.73969 8.21699 -2.73014
lowerback -1.3732 4.29081 5.17577
upperback -2.8565 5.71992 -0.825094
thorax -1.59069 2.76186 -3.70798
lowerneck -9.96507 -2.52952 3.14172
upperneck 5.81886 -3.48218 -3.97684
head 3.55326 -1.83032 -2.10074
rclavicle 2.92804e-014 1.47101e-014
rhumerus 44.5305 -21.6647 -65.8217
rradius 76.8882
rwrist -81.8066
rhand -19.1008 58.0342
rfingers 7.12502
rthumb 7.20787 28.177
lclavicle 2.92804e-014 1.47101e-014
lhumerus -26.8515 -17.2377 78.709
lradius 79.2456
lwrist 73.4102
lhand -23.5531 65.3482
lfingers 7.12502
lthumb -177.091 444.692
rfemur -20.9326 8.79744 21.1268
rtibia 39.6109
rfoot -41.4991 -9.93031
rtoes 22.3023
lfemur -16.448 -11.3029 -16.0077
ltibia 22.566
lfoot -10.6495 4.62776
ltoes -10.8505
180
root -0.184306 18.2471 -31.1593 8.71685 8.35601 -2.75533
lowerback -1.43695 4.23778 5.03173
upperback -2.92312 5.64699 -0.868188
thorax -1.64003 2.72511 -3.67252
lowerneck -9.80452 -2.43956 3.31526
upperneck 5.95566 -3.36748 -4.11336
head 3.57099 -1.77404 -2.17115
rclavicle 5.40694e-014 -7.65321e-015
rhumerus 43.4371 -21.2867 -63.9869
rradius 77.9427
rwrist -80.4798
rhand -18.9928 58.1952
rfingers 7.12502
rthumb 7.3121 28.3416
lclavicle 5.40694e-014 -7.65321e-015
lhumerus -27.4692 -17.132 78.7096
lradius 78.6165
lwrist 73.1495
lhand -23.7924 65.621
lfingers 7.12502
lthumb -177.322 444.416
rfemur -20.8826 8.48087 21.2337
rtibia 39.6207
rfoot -41.1732 -10.7681
rtoes 20.0489
lfemur -16.3896 -11.2325 -15.9693
ltibia 22.5157
lfoot -10.5716 4.32629
ltoes -11.2468
181
root -0.193329 18.2463 -31.1402 8.67956 8.62252 -2.53279
lowerback -1.63675 4.07945 4.5329
upperback -2.84437 5.42387 -0.885526
thorax -1.5105 2.62738 -3.39982
lowerneck -10.0684 -2.30565 3.19893
upperneck 6.36272 -3.17395 -4.07112
head 3.77678 -1.68027 -2.14257
rclavicle 6.73383e-015 -4.87022e-015
rhumerus 42.5158 -20.7742 -62.6942
rradius 78.9402
rwrist -78.9288
rhand -18.4989 58.5712
rfingers 7.12502
rthumb 7.78886 28.7347
lclavicle 6.73383e-015 -4.87022e-015
lhumerus -27.8343 -16.9843 78.6878
lradius 77.8517
lwrist 72.7306
lhand -23.6191 65.35
lfingers 7.12502
lthumb -177.155 444.689
rfemur -20.7338 8.37987 21.1113
rtibia 39.6739
rfoot -41.2868 -11.7883
rtoes 17.1459
lfemur -16.2626 -10.9449 -16.1958
ltibia 22.455
lfoot -10.5224 3.79722
ltoes -11.9475
182
root -0.196445 18.2436 -31.1205 8.58546 8.62467 -2.50003
lowerback -1.89254 3.9674 4.2221
upperback -2.71234 5.26101 -0.832174
thorax -1.27714 2.55944 -3.15095
lowerneck -10.31 -2.12832 3.05314
upperneck 6.63643 -2.92478 -3.97001
head 3.93528 -1.55726 -2.08001
rclavicle -8.65397e-014 -2.5345e-014
rhumerus 41.4955 -20.1212 -61.9379
rradius 80.429
rwrist -77.6738
rhand -18.9916 58.0844
rfingers 7.12502
rthumb 7.31327 28.2308
lclavicle -8.65397e-014 -2.5345e-014
lhumerus -28.1303 -16.8212 78.652
lradius 77.1046
lwrist 73.0246
lhand -24.3451 65.4495
lfingers 7.12502
lthumb -177.856 444.582
rfemur -20.5777 8.39543 21.1268
rtibia 39.7523
rfoot -41.2989 -12.1678
rtoes 16.0055
lfemur -16.0247 -10.6865 -16.2476
ltibia 22.3855
lfoot -10.5771 3.4258
ltoes -11.003
183
root -0.191062 18.2346 -31.1012 8.38685 8.2004 -2.43036
lowerback -1.97356 4.0694 4.0277
upperback -2.67769 5.39288 -0.946675
thorax -1.19112 2.63026 -3.14957
lowerneck -10.1295 -2.05765 3.31163
upperneck 6.70728 -2.85145 -4.07551
head 3.92429 -1.5176 -2.15596
rclavicle -1.77167e-014 -1.31198e-014
rhumerus 39.8458 -19.6018 -61.1976
rradius 82.0992
rwrist -76.676
rhand -20.3326 57.0307
rfingers 7.12502
rthumb 6.01872 27.1361
lclavicle -1.77167e-014 -1.31198e-014
lhumerus -28.6967 -17.0715 78.6345
lradius 76.5748
lwrist 73.6006
lhand -25.205 66.236
lfingers 7.12502
lthumb -178.686 443.788
rfemur -20.3647 8.43672 21.0385
rtibia 39.8534
rfoot -41.0595 -12.1273
rtoes 15.29
lfemur -15.5828 -10.577 -16.437
ltibia 22.2975
lfoot -10.7054 3.70492
ltoes -11.4704
